<svg width="31" height="30" viewBox="0 0 31 30" fill="none" xmlns="http://www.w3.org/2000/svg">
<rect x="0.476562" width="30" height="30" rx="2" fill="url(#paint0_linear_600_9442)"/>
<path d="M22.9316 11.4083C22.9192 10.7861 22.8014 10.1704 22.5832 9.5875C22.3947 9.08702 22.0992 8.6337 21.7174 8.25917C21.3429 7.87738 20.8895 7.5819 20.3891 7.39333C19.8064 7.17522 19.1911 7.05744 18.5691 7.045C17.7682 7.00833 17.5132 7 15.4766 7C13.4399 7 13.1849 7.00833 12.3849 7.045C11.7626 7.05734 11.147 7.17513 10.5641 7.39333C10.0633 7.58179 9.60967 7.87728 9.2349 8.25917C8.85311 8.6337 8.55763 9.08702 8.36906 9.5875C8.15095 10.1701 8.03317 10.7855 8.02073 11.4075C7.9849 12.2083 7.97656 12.4633 7.97656 14.5C7.97656 16.5367 7.9849 16.7917 8.02156 17.5917C8.03391 18.2139 8.15169 18.8296 8.3699 19.4125C8.55846 19.913 8.85394 20.3663 9.23573 20.7408C9.61025 21.1226 10.0636 21.4181 10.5641 21.6067C11.1467 21.8248 11.7621 21.9426 12.3841 21.955C13.1849 21.9917 13.4399 22 15.4766 22C17.5132 22 17.7682 21.9917 18.5682 21.955C19.1905 21.9427 19.8062 21.8249 20.3891 21.6067C20.8875 21.414 21.3401 21.1193 21.718 20.7414C22.0958 20.3636 22.3905 19.9109 22.5832 19.4125C22.8013 18.8299 22.9191 18.2145 22.9316 17.5925C22.9682 16.7917 22.9766 16.5367 22.9766 14.5C22.9766 12.4633 22.9682 12.2083 22.9316 11.4083ZM21.5816 17.5308C21.5758 18.0061 21.4884 18.4768 21.3232 18.9225C21.1986 19.2461 21.0075 19.54 20.7624 19.7853C20.5172 20.0306 20.2234 20.2218 19.8999 20.3467C19.454 20.5119 18.9829 20.5993 18.5074 20.605C17.7157 20.6408 17.4791 20.6483 15.4766 20.6483C13.4741 20.6483 13.2366 20.6408 12.4457 20.605C11.9705 20.5992 11.4997 20.5119 11.0541 20.3467C10.728 20.2266 10.4329 20.035 10.1907 19.7858C9.94168 19.5439 9.75004 19.2491 9.6299 18.9233C9.4646 18.4774 9.37722 18.0064 9.37156 17.5308C9.33573 16.7392 9.32823 16.5025 9.32823 14.5C9.32823 12.4975 9.33573 12.26 9.37156 11.4692C9.37733 10.9939 9.46471 10.5232 9.6299 10.0775C9.74993 9.7514 9.94158 9.45638 10.1907 9.21417C10.4327 8.96512 10.7274 8.77347 11.0532 8.65333C11.4992 8.48805 11.9702 8.40067 12.4457 8.395C13.2374 8.35917 13.4741 8.35167 15.4766 8.35167C17.4791 8.35167 17.7166 8.35917 18.5074 8.395C18.9827 8.40077 19.4534 8.48815 19.8991 8.65333C20.2252 8.77336 20.5202 8.96501 20.7624 9.21417C21.0114 9.45614 21.2031 9.75087 21.3232 10.0767C21.4885 10.5226 21.5759 10.9936 21.5816 11.4692C21.6174 12.2608 21.6249 12.4975 21.6249 14.5C21.6249 16.5025 21.6174 16.74 21.5816 17.5308V17.5308ZM15.4766 10.6483C14.7148 10.6483 13.9701 10.8742 13.3367 11.2975C12.7033 11.7207 12.2096 12.3222 11.9181 13.026C11.6266 13.7298 11.5503 14.5043 11.6989 15.2514C11.8475 15.9986 12.2144 16.6849 12.753 17.2235C13.2917 17.7622 13.978 18.129 14.7251 18.2777C15.4723 18.4263 16.2467 18.35 16.9505 18.0585C17.6543 17.767 18.2559 17.2733 18.6791 16.6399C19.1023 16.0065 19.3282 15.2618 19.3282 14.5C19.3282 13.4785 18.9224 12.4988 18.2001 11.7765C17.4778 11.0541 16.4981 10.6483 15.4766 10.6483V10.6483ZM15.4766 17C14.9821 17 14.4988 16.8534 14.0876 16.5787C13.6765 16.304 13.3561 15.9135 13.1669 15.4567C12.9776 14.9999 12.9281 14.4972 13.0246 14.0123C13.1211 13.5273 13.3592 13.0819 13.7088 12.7322C14.0584 12.3826 14.5039 12.1445 14.9888 12.048C15.4738 11.9516 15.9765 12.0011 16.4333 12.1903C16.8901 12.3795 17.2805 12.7 17.5552 13.1111C17.8299 13.5222 17.9766 14.0055 17.9766 14.5C17.9766 15.163 17.7132 15.7989 17.2443 16.2678C16.7755 16.7366 16.1396 17 15.4766 17ZM20.3799 10.4967C20.3799 10.6747 20.3271 10.8487 20.2282 10.9967C20.1293 11.1447 19.9888 11.26 19.8243 11.3282C19.6599 11.3963 19.4789 11.4141 19.3043 11.3794C19.1297 11.3446 18.9694 11.2589 18.8435 11.1331C18.7176 11.0072 18.6319 10.8468 18.5972 10.6722C18.5625 10.4977 18.5803 10.3167 18.6484 10.1523C18.7165 9.9878 18.8319 9.84724 18.9799 9.74834C19.1279 9.64945 19.3019 9.59667 19.4799 9.59667C19.7186 9.59667 19.9475 9.69149 20.1163 9.86027C20.2851 10.0291 20.3799 10.258 20.3799 10.4967V10.4967Z" fill="white"/>
<defs>
<linearGradient id="paint0_linear_600_9442" x1="32.2847" y1="1.61572" x2="15.4766" y2="30" gradientUnits="userSpaceOnUse">
<stop stop-color="#794FBD"/>
<stop offset="0.325" stop-color="#B23B97"/>
<stop offset="0.605" stop-color="#E5545D"/>
<stop offset="0.985" stop-color="#EB674C"/>
</linearGradient>
</defs>
</svg>
