<svg width="26" height="27" viewBox="0 0 26 27" fill="none" xmlns="http://www.w3.org/2000/svg">
<rect width="26" height="27" rx="2.24852" fill="#0A66C2"/>
<path d="M9.60518 20H7.04296V10.7143H9.60518V20ZM19 20H16.4378V15.0396C16.4378 13.747 16.0142 13.1035 15.1746 13.1035C14.5093 13.1035 14.0874 13.4638 13.8756 14.1853V20H11.3133C11.3133 20 11.3475 11.6429 11.3133 10.7143H13.3358L13.4921 12.5715H13.545C14.0703 11.6429 14.9098 11.0133 16.0611 11.0133C16.9366 11.0133 17.6446 11.278 18.1852 11.9428C18.7293 12.6086 19 13.5019 19 14.7564V20Z" fill="white"/>
<path d="M8.32382 9.7857C9.05494 9.7857 9.64763 9.1621 9.64763 8.39285C9.64763 7.6236 9.05494 7 8.32382 7C7.59269 7 7 7.6236 7 8.39285C7 9.1621 7.59269 9.7857 8.32382 9.7857Z" fill="white"/>
</svg>
